<svg version="1.1" id="Layer_1" xmlns="http://www.w3.org/2000/svg" xmlns:xlink="http://www.w3.org/1999/xlink" x="0px" y="0px" viewBox="0 0 500 500" style="width: 166px;" xml:space="preserve" data-imageid="team-presentation-62" imageName="Team Presentation" class="illustrations_image">
<style type="text/css">
	.st0_team-presentation-62{fill:#68E1FD;}
	.st1_team-presentation-62{fill:#D66329;}
	.st2_team-presentation-62{opacity:0.32;fill:url(#SVGID_1_);enable-background:new    ;}
	.st3_team-presentation-62{opacity:0.32;fill:url(#SVGID_00000019657251705686869210000000754651173331164606_);enable-background:new    ;}
	.st4_team-presentation-62{opacity:0.32;fill:url(#SVGID_00000129206215519426530770000015668242918526833848_);enable-background:new    ;}
	.st5_team-presentation-62{fill:#FBC76F;}
	.st6_team-presentation-62{fill:#0096DF;}
	.st7_team-presentation-62{fill:#363942;}
	.st8_team-presentation-62{fill:#FF7F5C;}
	.st9_team-presentation-62{fill:#FCBB5B;}
	.st10_team-presentation-62{fill:#F4B145;}
	.st11_team-presentation-62{fill:#FFFFFF;}
	.st12_team-presentation-62{fill:#007F68;}
</style>
<g id="Walls_team-presentation-62">
	<path class="st0_team-presentation-62 targetColor" d="M266.7,68.5v122.4c0,3.9-2.2,7.6-5.6,9.5L62,313c-5.2,3-11.9,1.1-14.9-4.1c-0.9-1.6-1.4-3.5-1.4-5.3V187.4&#10;&#9;&#9;c0-3.8,2-7.4,5.3-9.4L250.2,59.1c5.2-3.1,11.9-1.4,15,3.8C266.2,64.6,266.7,66.5,266.7,68.5z" style="fill: rgb(104, 110, 253);"/>
	<polygon class="st0_team-presentation-62 targetColor" points="430.3,108.2 430.3,233.8 465.2,254.7 465.2,128.6 &#9;" style="fill: rgb(104, 110, 253);"/>
</g>
<polygon id="Base_team-presentation-62" class="st1_team-presentation-62" points="303.1,188.9 470.2,284.3 196.4,442.4 29.8,349.2 "/>
<g id="Shadow_team-presentation-62">
	
		<linearGradient id="SVGID_1_-team-presentation-62" gradientUnits="userSpaceOnUse" x1="84.9913" y1="-585.9053" x2="100.1213" y2="-597.5552" gradientTransform="matrix(1 0 0 1 0 965.14)">
		<stop offset="0" style="stop-color:#363942;stop-opacity:0"/>
		<stop offset="1" style="stop-color:#363942"/>
	</linearGradient>
	<path class="st2_team-presentation-62" d="M100.2,388.6l8.1-21.1L96,358.4L69.6,370C80.9,378.1,88.1,381.5,100.2,388.6z"/>
	
		<linearGradient id="SVGID_00000029758526578400179520000003887662965913035176_-team-presentation-62" gradientUnits="userSpaceOnUse" x1="139.3773" y1="-587.2537" x2="166.3273" y2="-607.1237" gradientTransform="matrix(1 0 0 1 0 965.14)">
		<stop offset="0" style="stop-color:#363942;stop-opacity:0"/>
		<stop offset="1" style="stop-color:#363942"/>
	</linearGradient>
	<path style="opacity:0.32;fill:url(#SVGID_00000029758526578400179520000003887662965913035176_);enable-background:new    ;" d="&#10;&#9;&#9;M153.6,388l34.8-26.5L164.3,347l-41,22.1C134.7,377.3,141.5,381,153.6,388z"/>
	
		<linearGradient id="SVGID_00000005264584152059892270000014326762662146176158_-team-presentation-62" gradientUnits="userSpaceOnUse" x1="256.1516" y1="-644.6308" x2="304.8616" y2="-673.9507" gradientTransform="matrix(1 0 0 1 0 965.14)">
		<stop offset="0" style="stop-color:#363942;stop-opacity:0"/>
		<stop offset="1" style="stop-color:#363942"/>
	</linearGradient>
	<path style="opacity:0.32;fill:url(#SVGID_00000005264584152059892270000014326762662146176158_);enable-background:new    ;" d="&#10;&#9;&#9;M263.9,328l58.7-33.4L305.8,281l-65.1,34.7C252.1,323.8,251.8,320.9,263.9,328z"/>
</g>
<g id="Character_2_team-presentation-62">
	<path class="st5_team-presentation-62" d="M195.2,201.1c0,0,2-6.1,1.8-8.7s-1.6-6.5,0-7.2s3.6,4.8,3.6,4.8s4.9-10.3,6.4-9.7c0.9,0.6,1.5,1.6,1.6,2.7&#10;&#9;&#9;c0,0,1.6-2.6,2.2-1.5c0.3,1,0.3,2.2,0,3.2c0,0,1.4,0.3,1.6,1.2s-2.1,4.8-2.1,4.8c0.7,0.1,1.2,0.7,1.3,1.4&#10;&#9;&#9;c0.1,1.2-9.3,10.6-9.3,10.6"/>
	<path class="st6_team-presentation-62" d="M170.5,199.6c0,0,8.2,6.8,11.4,12s13.6-13.8,13.6-13.8s7.3,2.4,9.6,3.4s-11.7,33.2-21.4,32.1s-9.4-3-9.4-3"/>
	<path class="st7_team-presentation-62" d="M175.2,332.5c-0.2,0.7-2,9.1,0,11.9s5.7,4.5,8.4,6.9c1.4,1.2,6.9,8.6,2.7,9.4c-2.9,0.5-11.7-2.2-17.2-6.2&#10;&#9;&#9;s-9.3-4.8-9.5-6.9s3.4-19.1,3.4-19.1"/>
	<path class="st7_team-presentation-62" d="M171.2,345.2c0.3-3.8,0.5-8,0.5-10.2C171,338.4,170.9,341.8,171.2,345.2z"/>
	<path class="st7_team-presentation-62" d="M145.7,348.6c0,0,2.7,7.4,4.4,9.1s8.7,8.9,7.2,12.4s-13.6,0.6-16.6-4.3s-4.6-5-5.6-7s-2.3-14.2-2.3-14.2"/>
	<path class="st8_team-presentation-62" d="M173.8,245c0,0,3.4,89.9,0.7,92s-12.9,5.1-17.9,1.4l4.2-38.9l-11.6,54.6c0,0-14,2.3-18.3-3&#10;&#9;&#9;c-0.8-1,0.3-5.4,0.4-6.6c0.6-5.2,1.3-10.4,2-15.6c1.9-13.9,4-27.7,6.1-41.5c0.7-4.9,1.5-9.8,2.2-14.6c1.1-7.4,2.6-15.4,6.4-21.9&#10;&#9;&#9;c2.7-4.5,6.4-12.2,11.6-14.2"/>
	<path class="st6_team-presentation-62" d="M148.3,250.7c8.9,1.5,17.9,0.5,25.6-4.3c1.2-13.8,2.1-27.5,0.6-41.3c0-0.1,0-0.2,0-0.3&#10;&#9;&#9;c-0.9-2.1-2.3-3.8-4.1-5.2c-4.5-3-11.9-1.6-16.2,0.7c-1,0.6-2,1.3-2.9,2.1C146.5,218.1,148.5,234.4,148.3,250.7z"/>
	<path class="st9_team-presentation-62" d="M165.4,193.1l-8-1.7l-0.7,8.8c0,0,6,6.2,12,5.3l-1.7-7.4C166.3,196.5,165.8,194.8,165.4,193.1z"/>
	<path class="st10_team-presentation-62" d="M165.6,193.9c-2.6-1.2-5.4-2-8.2-2.5l-0.2,4.8c0,0,6,4.4,9.6,1.3C166.3,196.3,165.9,195.1,165.6,193.9z"/>
	<path class="st7_team-presentation-62" d="M171.2,183.4c0,0,5.3-3.2,4.2-6.2s-5.2-3.8-5.2-3.8s-0.7-3.8-3.7-4.2s-8.4,2.1-8.4,2.1s-4.6-0.4-6.2,2.1&#10;&#9;&#9;s-1,7.2-1,7.2s3.9,11.6,5.6,11.9s6-4,6-4"/>
	<path class="st5_team-presentation-62" d="M171.3,179.8c0,0,1.3,15.4-5.3,16.4s-9.4-7.9-9.4-7.9s-4-3.7-1.5-4.5s2.8,0.6,2.8,0.6s-2.4-5.6,0.1-5.6&#10;&#9;&#9;S168,183,171.3,179.8z"/>
	<path class="st7_team-presentation-62" d="M164.6,262.2c-3.7,28.2-8.9,56.2-15.6,83.9c-0.2,0.9,1.1,1.4,1.3,0.5c6.7-27.8,12-55.9,15.7-84.2&#10;&#9;&#9;C166.1,261.4,164.8,261.3,164.6,262.2z"/>
	<path class="st11_team-presentation-62" d="M156.8,197.7c0,0,3.1,2.9,5.2,3.1l3.2,1.7l2.6,2.8v-3.8c0,0-0.8-3.4-0.7-3.4s2.8,4.4,2.8,4.4l2.6,4.4&#10;&#9;&#9;l-3.8-0.4l-1.6,2.8c0,0-9.5-4.2-12.8-9.1L156.8,197.7z"/>
	<path class="st7_team-presentation-62" d="M208.1,182.3c-1.7,2.9-3.3,5.9-4.9,8.8c-0.2,0.4,0.4,0.7,0.6,0.3c1.6-3,3.2-5.9,4.9-8.8c0.1-0.2,0-0.4-0.2-0.4&#10;&#9;&#9;C208.4,182.1,208.2,182.2,208.1,182.3z"/>
	<path class="st7_team-presentation-62" d="M210.3,184.3l-4.5,8.2c-0.2,0.4,0.4,0.7,0.6,0.3l4.5-8.2c0.1-0.2,0-0.4-0.2-0.4&#10;&#9;&#9;C210.5,184.2,210.4,184.2,210.3,184.3z"/>
	<path class="st7_team-presentation-62" d="M210,190.6c-0.9,1-1.7,2.1-2.3,3.3c-0.1,0.2,0,0.4,0.2,0.4c0,0,0,0,0,0c0.1,0,0.3,0,0.4-0.1&#10;&#9;&#9;c0.6-1.1,1.4-2.2,2.2-3.2C210.7,190.7,210.2,190.2,210,190.6z"/>
	<path class="st7_team-presentation-62" d="M201.2,190.9c-0.4-0.2-0.7,0.4-0.3,0.6c2.1,1.3,3.3,3.7,3.1,6.2c0,0.2,0.2,0.3,0.4,0.3c0.1,0,0.3-0.1,0.3-0.3&#10;&#9;&#9;C204.9,194.9,203.6,192.3,201.2,190.9z"/>
	<path class="st6_team-presentation-62" d="M151.3,202.3c-3.3,2.1-6,5.1-7.8,8.6c-2.8,5.6-10.4,31.2-1.4,34.9s24.5-4.6,24.5-4.6l-0.9-13.6l-13.4,1.9"/>
	<path class="st8_team-presentation-62" d="M168.6,216.8c-0.1,0.4-4.1,25.4-4.1,25.4l15.8-4.2l3.4-25.5L168.6,216.8z"/>
	<path class="st5_team-presentation-62" d="M162.4,229.1c0,0,2.8-7.2,4.2-6.7s1,4.1,1,4.1s7.1-3.5,9.1-1.9s-2.8,5.7-4.2,6.6s-9.5,3.9-9.5,3.9L162.4,229.1&#10;&#9;&#9;z"/>
	<path class="st7_team-presentation-62" d="M148.3,246.8c4.7-1,9.3-2.3,13.8-3.9c0,0,1.2-7.2,1.3-7s-0.2,9.2-0.7,9.8s-14.3,4.9-14.3,4.9L148.3,246.8z"/>
</g>
<g id="Clock_team-presentation-62">
	<path class="st12_team-presentation-62" d="M390.4,103.2c4.2,12-0.2,24.9-10,28.7s-21.1-2.7-25.4-14.7s0.2-24.9,10-28.7S386.1,91.2,390.4,103.2z"/>
	<path class="st12_team-presentation-62" d="M387.4,104.4c4.2,12-0.2,24.9-10,28.7s-21.1-2.7-25.4-14.7s0.2-24.9,10-28.8S383.2,92.4,387.4,104.4z"/>
	<path class="st11_team-presentation-62" d="M384.4,105.6c3.5,9.9-0.2,20.6-8.3,23.8s-17.5-2.2-21-12.2s0.2-20.6,8.3-23.8S380.9,95.7,384.4,105.6z"/>
	<path class="st12_team-presentation-62" d="M369.3,110.9l-5.5,7.9c-0.5,0.7,0.5,1.4,1,0.8l5.5-7.9C370.7,111.1,369.7,110.3,369.3,110.9z"/>
	<path class="st12_team-presentation-62" d="M369,98.6v12.2c0,0.4,0.3,0.7,0.7,0.7c0.4,0,0.7-0.3,0.7-0.7c0,0,0,0,0,0V98.6c0-0.4-0.3-0.7-0.7-0.7&#10;&#9;&#9;C369.3,97.9,369,98.2,369,98.6z"/>
</g>
<g id="Plant_team-presentation-62">
	<path class="st0_team-presentation-62 targetColor" d="M91.3,328.4c-5.5,7-8.1,15.8-7.5,24.6c1,14.4,9.1,18.5,9.1,18.5l9.6,0.5c0,0,11.4-3.7,9.9-22.4&#10;&#9;&#9;c-1.4-17.5-7.1-21.7-7.1-21.7" style="fill: rgb(104, 110, 253);"/>
	<ellipse class="st7_team-presentation-62" cx="98.4" cy="328.4" rx="7.1" ry="2.5"/>
	<ellipse class="st0_team-presentation-62 targetColor" cx="98.4" cy="370" rx="7.1" ry="2.5" style="fill: rgb(104, 110, 253);"/>
	<path class="st12_team-presentation-62" d="M95.4,329.1L86.9,280c-0.2-1.1-1.8-0.6-1.6,0.5l8.6,49.2C94,330.7,95.6,330.2,95.4,329.1z"/>
	<path class="st12_team-presentation-62" d="M97,329.3c0.3-0.1,0.5-0.1,0.8,0c0.3,0.1,0.6,0.3,0.9,0.5c0.7-13.7,0.8-27.5,0.4-41.3c0-0.5-0.4-0.8-0.9-0.8&#10;&#9;&#9;c-0.5,0-0.8,0.4-0.8,0.8C97.8,302.1,97.7,315.7,97,329.3z"/>
	<path class="st12_team-presentation-62" d="M116.3,281.5c-6.4,15.4-11.9,31.2-16.6,47.3c-0.1,0.5,0.2,0.9,0.7,1c0.4,0.1,0.8-0.2,0.9-0.5&#10;&#9;&#9;c4.6-16.1,10.2-31.9,16.6-47.3C118.4,281,116.7,280.5,116.3,281.5z"/>
	<path class="st12_team-presentation-62" d="M88.7,300.2c0,0-0.9-0.1-5-4.4s1.1-7.5-1.3-12.2s1-11.1,1.7-15.9c0.5,3.4,1.7,6.6,3.6,9.4&#10;&#9;&#9;c3,4.4,4.8,8.3,4.4,13.9c-0.2,3.5-0.8,7-1.8,10.3"/>
	<path class="st12_team-presentation-62" d="M97.4,307.8c0,0-0.9-0.3-3.8-5.5s2.8-7,1.7-12.2s3.6-10.5,5.5-15c-0.4,3.4,0,6.8,1.2,10&#10;&#9;&#9;c1.9,5,2.6,9.2,0.9,14.5c-1.1,3.3-2.5,6.6-4.2,9.6"/>
	<path class="st12_team-presentation-62" d="M109.5,299c0,0-0.8-0.5-2.6-6.1s4.2-6.2,4.2-11.6s5.7-9.5,8.4-13.5c-1.1,3.2-1.4,6.6-0.9,10&#10;&#9;&#9;c0.8,5.3,0.7,9.5-2.1,14.4c-1.7,3-3.8,5.9-6.1,8.5"/>
</g>
<g id="Character_1_team-presentation-62">
	<polygon class="st12_team-presentation-62" points="335.8,174.4 327,158.3 321.9,150.1 341.6,140.5 354.3,166.5 &#9;"/>
	<path class="st5_team-presentation-62" d="M315.2,171.4l5.6-6.2c0.5-0.4,0.9-0.9,1.2-1.4c0.3-0.8,0.4-1.7,0.4-2.6c0.1-1.3,0.4-2.6,0.8-3.8&#10;&#9;&#9;c0.3-0.8,1.1-1.3,1.9-1c0,0,0,0,0,0c0.6,0.2,1.1,0.8,1.1,1.4c0,0.8,0,1.6-0.1,2.4l1.4-1.2c1.9,3.4,3.8,6.7,5.8,9.9&#10;&#9;&#9;c-1.1,0.1-2.2,0.1-3.4,0c-4,2.4-7.6,5.5-10.5,9.1c-0.5,0.6-1.4,0.7-2,0.2c0,0,0,0,0,0c-0.2-0.2-0.4-0.4-0.5-0.7&#10;&#9;&#9;c-0.2,0-0.3-0.1-0.5-0.2h-0.1c-0.7-0.4-0.9-1.4-0.5-2.1v-0.1c0.1-0.3,0.4-0.6,0.8-0.7c0.3-0.4,0.6-0.7,0.9-1.1l-0.2,0.2&#10;&#9;&#9;C316,175.1,313.9,172.9,315.2,171.4z"/>
	<path class="st7_team-presentation-62" d="M326.7,166.6c0.6-0.8,1-1.8,1.2-2.8c-0.1-1-0.5-2-1.1-2.8c-0.3-0.4,0.4-0.7,0.6-0.4c0.7,0.9,1.2,2,1.2,3.1&#10;&#9;&#9;c-0.1,1.2-0.6,2.3-1.3,3.3c-0.1,0.2-0.4,0.2-0.5,0.1S326.6,166.7,326.7,166.6L326.7,166.6z"/>
	<path class="st5_team-presentation-62" d="M227.2,162.9c0.9,0.2,1.7,0.4,2.6,0.7c-0.6-0.4-1-1.1-1.1-1.8c-0.2-0.7,0.3-1.4,1-1.6c0,0,0,0,0,0&#10;&#9;&#9;c0.3-0.1,0.7,0,1,0.1c2.3,1.2,4.7,2.3,7,3.5c0-0.2-0.1-0.4-0.1-0.5c-0.4-1.1-0.5-2.2-0.4-3.4c0.5-2,2.3-0.9,3,0.7&#10;&#9;&#9;c1,2.1,1.2,4.3,3.1,5.9c1.1,0.7,2.3,1.2,3.6,1.4c1.3,0.4,2.6,0.7,4,1.1c0.7,0.2,1.1,1,0.9,1.6c0,0,0,0,0,0&#10;&#9;&#9;c-0.1,0.4-0.4,0.7-0.9,0.9c0.6,0.4,0.8,1.2,0.4,1.8c0,0,0,0,0,0c-0.1,0.2-0.3,0.4-0.5,0.5c0.6,0.9-0.1,2.5-1.4,2&#10;&#9;&#9;c-3.1-1.2-6.3-2.2-9.6-2.8c-3.2-0.2-6.4-0.4-9.6-0.8c-1.6-0.2-1.7-2.8,0-2.6h0.3l-2.9-0.5c-1.4-0.2-1.1-2.8,0.4-2.6h0.4l0.9,0.1&#10;&#9;&#9;l-1.4-0.4c-0.8-0.3-1.6-0.5-2.1-1.4c-0.3-0.7,0.1-1.4,0.7-1.7c0,0,0,0,0,0C226.8,162.9,227,162.9,227.2,162.9z"/>
	<path class="st7_team-presentation-62" d="M237.6,165.2c0.1-0.2,0.2-0.2,0.4-0.2c0,0,0,0,0,0c0.1,0.1,0.2,0.2,0.2,0.3c-0.5,1.7,0.1,3.5,1.4,4.6&#10;&#9;&#9;c0.3,0.2-0.1,0.7-0.4,0.4C237.7,169,237.1,167,237.6,165.2z"/>
	<path class="st7_team-presentation-62" d="M229.6,163.1c2.1,0.6,4.2,1.2,6.2,1.9c0.4,0.1,0.2,0.7-0.2,0.6c-2-0.7-4.1-1.4-6.2-1.9&#10;&#9;&#9;c-0.1-0.1-0.2-0.2-0.1-0.4C229.4,163.2,229.5,163.1,229.6,163.1z"/>
	<path class="st7_team-presentation-62" d="M228.2,166.1l6.6,1c0.4,0,0.2,0.6-0.2,0.6l-6.6-1C227.6,166.6,227.8,166.1,228.2,166.1z"/>
	<path class="st7_team-presentation-62" d="M229.4,169.1c1.8,0.1,3.6,0.2,5.4,0.2c0.2,0,0.3,0.1,0.3,0.3c0,0.2-0.1,0.3-0.3,0.3c-1.8-0.1-3.6-0.1-5.4-0.2&#10;&#9;&#9;C229,169.6,229,169.1,229.4,169.1z"/>
	<path class="st7_team-presentation-62" d="M311.4,274.5c0,0,0.2,8.5,1.2,9.8s9.9,6.1,10.4,8.2s-1.1,5.3-5.3,4.1s-14.5-7.8-14.5-7.8v-18.4"/>
	<path class="st7_team-presentation-62" d="M277.3,284.2l-1.1,9.2c0,0,3.9,14.2,2.3,16s-7.2,3.6-9.4,0s0.9-16.9,0.9-16.9l0.2-10"/>
	<path class="st10_team-presentation-62" d="M297.8,186.6c0,0,11,44.8,11.5,51.8s3.8,40.3,3.8,40.3s-10.5,4.7-17.6,2.3l-5.6-42.2l-6.1-44.2&#10;&#9;&#9;C283.9,194.6,295.2,183.4,297.8,186.6z"/>
	<path class="st10_team-presentation-62" d="M276.6,197.1c-7.8,33.1-8.7,58.1-12.7,87c0,0,16.9,6.2,20.6,0.2c2.5-29.5,4.6-59.1,5.5-88.6L276.6,197.1z"/>
	<path class="st8_team-presentation-62" d="M245.6,162.1c7.1,2.7,15.5,5.2,21.3,4.4c7.3-1,14.4-2.8,21.3-5.3c0.9-0.3,11-4.2,14.8-0.8s2.8,14.2,2.8,14.2&#10;&#9;&#9;l13.6-11.8c5.1,1.8,7,7,7.5,12.2c-0.2,0.2-0.4,0.4-0.5,0.5c-0.9,1.2-1.9,2.3-3,3.4c-4.5,5-9.6,10.8-16.2,13&#10;&#9;&#9;c-2.6,0.8-5.4,0.6-7.9-0.5c-2-0.7-4.8-3.1-7-2.3c-0.5,0.2-1.1,0.6-1.7,0.5c-1.6-0.2-3.7-2.7-5.1-3.5c-4.1-2.1-8.9-2.4-13.4-2.7&#10;&#9;&#9;c-4.9-0.2-9.8-0.7-14.7-1.6c-1.4-0.3-16.5-4.2-16.8-3.5C243.7,172.3,244.4,168.7,245.6,162.1z"/>
	<path class="st5_team-presentation-62" d="M298.8,151.9c1,4.7,0.2,11.3-4.9,12c-6.5,1-8.1-3.5-7.8-8.9c0.3-4.3,2.5-11.1,8.4-9.1c1.4,0.5,2.6,1.6,3.3,3&#10;&#9;&#9;C298.2,149.8,298.6,150.9,298.8,151.9z"/>
	<path class="st7_team-presentation-62" d="M299.1,153c2.7-1.4,4.3-4.2,4.1-7.2c-0.3-2.9-3.1-6.6-6.4-5.2c-2.2,0.9-1.6,1-1.6,1c-1.1-1.2-2.7-1.8-4.3-1.5&#10;&#9;&#9;c-3.1,0.3-3.6,2.2-3.6,2.2s-3.5,1.2-4.4,3.4c-1.1,2.6,1.4,10.2,2.5,12.3s1.8-2.2,2.2-4c0.3-1.4,1.2-2.6,2.6-3.2&#10;&#9;&#9;c1.9-0.5,2.8,1.2,4.4,1.9C295.9,153.4,297.6,153.6,299.1,153z"/>
	<path class="st8_team-presentation-62" d="M286.8,199c-3.5,0-7-0.6-10.2-1.9l-0.7-21.7l26.1,12.3c0,0-1,5.2-2.1,10C295.6,198.9,291.2,199.3,286.8,199z"/>
	<path class="st7_team-presentation-62" d="M302.3,173c-0.1,8.3-0.9,16.6-2.4,24.8c-0.1,0.6,0.8,0.8,0.9,0.2c1.5-8.3,2.3-16.6,2.4-25&#10;&#9;&#9;c0-0.3-0.2-0.5-0.5-0.5S302.3,172.8,302.3,173L302.3,173z"/>
</g>
</svg>